<?xml version="1.0" encoding="UTF-8" standalone="no"?>
<!DOCTYPE svg PUBLIC "-//W3C//DTD SVG 1.1//EN"
 "http://www.w3.org/Graphics/SVG/1.1/DTD/svg11.dtd">
<!-- Generated by graphviz version 12.1.1 (20240910.0053)
 -->
<!-- Title: INFRA Pages: 1 -->
<svg width="314pt" height="188pt"
 viewBox="0.00 0.00 313.99 188.00" xmlns="http://www.w3.org/2000/svg" xmlns:xlink="http://www.w3.org/1999/xlink">
<g id="graph0" class="graph" transform="scale(1 1) rotate(0) translate(4 184)">
<title>INFRA</title>
<polygon fill="white" stroke="none" points="-4,4 -4,-184 309.99,-184 309.99,4 -4,4"/>
<!-- NextJS Application -->
<g id="node1" class="node">
<title>NextJS Application</title>
<path fill="#b7e0ff" stroke="black" stroke-width="2" d="M220,-180C220,-180 97.29,-180 97.29,-180 91.29,-180 85.29,-174 85.29,-168 85.29,-168 85.29,-120 85.29,-120 85.29,-114 91.29,-108 97.29,-108 97.29,-108 220,-108 220,-108 226,-108 232,-114 232,-120 232,-120 232,-168 232,-168 232,-174 226,-180 220,-180"/>
<text text-anchor="middle" x="158.64" y="-148.2" font-family="Arial" font-size="14.00">NextJS Application</text>
<text text-anchor="middle" x="158.64" y="-131.4" font-family="Arial" font-size="14.00">(NextJS::Application)</text>
</g>
<!-- MongoDB -->
<g id="node2" class="node">
<title>MongoDB</title>
<path fill="#ffcfb3" stroke="black" stroke-width="2" d="M155.29,-65.45C155.29,-69.07 120.49,-72 77.64,-72 34.8,-72 0,-69.07 0,-65.45 0,-65.45 0,-6.55 0,-6.55 0,-2.93 34.8,0 77.64,0 120.49,0 155.29,-2.93 155.29,-6.55 155.29,-6.55 155.29,-65.45 155.29,-65.45"/>
<path fill="none" stroke="black" stroke-width="2" d="M155.29,-65.45C155.29,-61.84 120.49,-58.91 77.64,-58.91 34.8,-58.91 0,-61.84 0,-65.45"/>
<text text-anchor="middle" x="77.64" y="-40.2" font-family="Arial" font-size="14.00">MongoDB</text>
<text text-anchor="middle" x="77.64" y="-23.4" font-family="Arial" font-size="14.00">(MongoDB::Database)</text>
</g>
<!-- NextJS Application&#45;&gt;MongoDB -->
<g id="edge1" class="edge">
<title>NextJS Application&#45;&gt;MongoDB</title>
<path fill="none" stroke="black" d="M131.67,-107.7C125.18,-99.21 118.17,-90.03 111.41,-81.19"/>
<polygon fill="black" stroke="black" points="114.27,-79.17 105.42,-73.34 108.71,-83.42 114.27,-79.17"/>
</g>
<!-- AWS S3 -->
<g id="node3" class="node">
<title>AWS S3</title>
<path fill="#fff5cd" stroke="black" stroke-width="2" d="M305.99,-65.45C305.99,-69.07 276.25,-72 239.64,-72 203.03,-72 173.3,-69.07 173.3,-65.45 173.3,-65.45 173.3,-6.55 173.3,-6.55 173.3,-2.93 203.03,0 239.64,0 276.25,0 305.99,-2.93 305.99,-6.55 305.99,-6.55 305.99,-65.45 305.99,-65.45"/>
<path fill="none" stroke="black" stroke-width="2" d="M305.99,-65.45C305.99,-61.84 276.25,-58.91 239.64,-58.91 203.03,-58.91 173.3,-61.84 173.3,-65.45"/>
<text text-anchor="middle" x="239.64" y="-40.2" font-family="Arial" font-size="14.00">AWS S3</text>
<text text-anchor="middle" x="239.64" y="-23.4" font-family="Arial" font-size="14.00">(AWS::S3::Bucket)</text>
</g>
<!-- NextJS Application&#45;&gt;AWS S3 -->
<g id="edge2" class="edge">
<title>NextJS Application&#45;&gt;AWS S3</title>
<path fill="none" stroke="black" d="M185.62,-107.7C192.11,-99.21 199.12,-90.03 205.88,-81.19"/>
<polygon fill="black" stroke="black" points="208.58,-83.42 211.87,-73.34 203.02,-79.17 208.58,-83.42"/>
</g>
</g>
</svg>
